<svg width="17" height="17" viewBox="0 0 17 17" fill="none" xmlns="http://www.w3.org/2000/svg">
<path d="M8.5 0.666504C7.40566 0.666504 6.32202 0.882052 5.31098 1.30084C4.29993 1.71963 3.38127 2.33346 2.60745 3.10728C1.04465 4.67008 0.166672 6.7897 0.166672 8.99984C0.166672 12.6832 2.55834 15.8082 5.86667 16.9165C6.28334 16.9832 6.41667 16.7248 6.41667 16.4998V15.0915C4.10834 15.5915 3.61667 13.9748 3.61667 13.9748C3.23334 13.0082 2.69167 12.7498 2.69167 12.7498C1.93334 12.2332 2.75001 12.2498 2.75001 12.2498C3.58334 12.3082 4.02501 13.1082 4.02501 13.1082C4.75001 14.3748 5.97501 13.9998 6.45001 13.7998C6.525 13.2582 6.74167 12.8915 6.97501 12.6832C5.12501 12.4748 3.18334 11.7582 3.18334 8.58317C3.18334 7.65817 3.50001 6.9165 4.04167 6.32484C3.95834 6.1165 3.66667 5.24984 4.12501 4.12484C4.12501 4.12484 4.82501 3.89984 6.41667 4.97484C7.07501 4.7915 7.79167 4.69984 8.5 4.69984C9.20834 4.69984 9.925 4.7915 10.5833 4.97484C12.175 3.89984 12.875 4.12484 12.875 4.12484C13.3333 5.24984 13.0417 6.1165 12.9583 6.32484C13.5 6.9165 13.8167 7.65817 13.8167 8.58317C13.8167 11.7665 11.8667 12.4665 10.0083 12.6748C10.3083 12.9332 10.5833 13.4415 10.5833 14.2165V16.4998C10.5833 16.7248 10.7167 16.9915 11.1417 16.9165C14.45 15.7998 16.8333 12.6832 16.8333 8.99984C16.8333 7.90549 16.6178 6.82186 16.199 5.81081C15.7802 4.79976 15.1664 3.8811 14.3926 3.10728C13.6187 2.33346 12.7001 1.71963 11.689 1.30084C10.678 0.882052 9.59435 0.666504 8.5 0.666504Z" fill="#8C8C8C"/>
</svg>
