<svg width="21" height="20" viewBox="0 0 21 20" fill="none" xmlns="http://www.w3.org/2000/svg">
<path d="M17.5375 17.0444H14.5794V12.4025C14.5794 11.2956 14.5562 9.87313 13.0325 9.87313C11.49 9.87313 11.255 11.0737 11.255 12.3206V17.0438H8.29313V7.49937H11.1381V8.80125H11.1763C11.5738 8.04937 12.5406 7.25875 13.9831 7.25875C16.9837 7.25875 17.5406 9.23438 17.5406 11.8031V17.0438L17.5375 17.0444ZM4.94687 6.195C4.7208 6.19508 4.49692 6.15056 4.28808 6.06399C4.07923 5.97742 3.88952 5.85049 3.7298 5.69049C3.57009 5.53048 3.44351 5.34054 3.35731 5.13153C3.27112 4.92253 3.22701 4.69858 3.2275 4.4725C3.22787 4.13222 3.32913 3.79969 3.51848 3.51695C3.70782 3.23422 3.97675 3.01397 4.29126 2.88407C4.60577 2.75416 4.95173 2.72043 5.28541 2.78713C5.61909 2.85384 5.9255 3.01798 6.16589 3.25882C6.40629 3.49965 6.56988 3.80635 6.63598 4.14015C6.70207 4.47395 6.66771 4.81986 6.53724 5.13413C6.40676 5.4484 6.18603 5.71693 5.90295 5.90576C5.61987 6.09459 5.28716 6.19525 4.94687 6.195ZM6.43062 17.0444H3.4625V7.5H6.43062V17.0444ZM19.0225 0H1.975C1.16062 0 0.5 0.644375 0.5 1.44187V18.5588C0.5 19.3563 1.16062 20.0006 1.975 20.0006H19.0194C19.8325 20.0006 20.5 19.3563 20.5 18.5588V1.44187C20.5 0.644375 19.8325 0 19.0194 0H19.0225Z" fill="#8C8C8C"/>
</svg>
