<svg width="21" height="20" viewBox="0 0 21 20" fill="none" xmlns="http://www.w3.org/2000/svg">
<path d="M20.96 2.35294C20.19 2.76471 19.36 3.03529 18.5 3.16471C19.38 2.54118 20.06 1.55294 20.38 0.364706C19.55 0.952941 18.63 1.36471 17.66 1.6C16.87 0.588235 15.76 0 14.5 0C12.15 0 10.23 2.25882 10.23 5.04706C10.23 5.44706 10.27 5.83529 10.34 6.2C6.78001 5.98824 3.61001 3.97647 1.50001 0.929412C1.13001 1.67059 0.920009 2.54118 0.920009 3.45882C0.920009 5.21176 1.67001 6.76471 2.83001 7.64706C2.12001 7.64706 1.46001 7.41177 0.880009 7.05882V7.09412C0.880009 9.54118 2.36001 11.5882 4.32001 12.0471C3.69085 12.2505 3.03005 12.2787 2.39001 12.1294C2.66162 13.1323 3.19355 14.0099 3.91103 14.6387C4.6285 15.2676 5.49546 15.6161 6.39001 15.6353C4.87368 17.0477 2.99402 17.8111 1.06001 17.8C0.720008 17.8 0.380009 17.7765 0.0400085 17.7294C1.94001 19.1647 4.20001 20 6.62001 20C14.5 20 18.83 12.3059 18.83 5.63529C18.83 5.41177 18.83 5.2 18.82 4.97647C19.66 4.27059 20.38 3.37647 20.96 2.35294Z" fill="#8C8C8C"/>
</svg>
